<?xml version="1.0" encoding="utf-8"?>
<!-- Generator: Adobe Illustrator 16.0.0, SVG Export Plug-In . SVG Version: 6.00 Build 0)  -->
<!DOCTYPE svg PUBLIC "-//W3C//DTD SVG 1.1//EN" "http://www.w3.org/Graphics/SVG/1.1/DTD/svg11.dtd">
<svg version="1.1" id="Layer_1" xmlns="http://www.w3.org/2000/svg" xmlns:xlink="http://www.w3.org/1999/xlink" x="0px" y="0px"
	 width="212px" height="31px" viewBox="0 0 212 31" enable-background="new 0 0 212 31" xml:space="preserve">
<path fill="#FFFFFF" d="M0,7.612h1.678v3.106c1.118-1.8,2.696-3.51,5.802-3.51c3.041,0,4.905,1.743,5.869,3.759
	c1.126-1.95,3.008-3.759,6.287-3.759c4.128,0,6.683,2.901,6.683,7.266v10.555h-1.667V14.681c0-3.756-1.949-5.936-5.157-5.936
	c-2.942,0-5.498,2.252-5.498,6.141v10.144H12.32V14.581c0-3.614-1.98-5.836-5.087-5.836c-3.108,0-5.556,2.729-5.556,6.238v10.044H0
	V7.612z"/>
<path fill="#FFFFFF" d="M27.647,29.846l0.583-1.473c0.923,0.445,1.678,0.643,2.979,0.643c1.806,0,2.997-1.054,4.296-4.084
	l-8.358-17.32h1.939l7.235,15.576l6.284-15.576h1.843L36.91,25.646c-1.544,3.656-3.321,4.946-5.812,4.946
	C29.768,30.594,28.813,30.355,27.647,29.846z"/>
<path fill="#FFFFFF" d="M44.308,16.291v-0.074c0-4.981,3.896-9.215,9.044-9.215c3.351,0,5.432,1.399,7.076,3.143l-1.742,1.84
	c-1.397-1.471-2.977-2.662-5.368-2.662c-3.585,0-6.312,3.039-6.312,6.829v0.064c0,3.822,2.803,6.863,6.484,6.863
	c2.253,0,3.994-1.117,5.399-2.63l1.679,1.579c-1.785,1.979-3.896,3.41-7.217,3.41C48.204,25.439,44.308,21.24,44.308,16.291z"/>
<path fill="#FFFFFF" d="M62.845,0.107h2.63v10.34c1.158-1.916,3-3.445,6.041-3.445c4.273,0,6.757,2.869,6.757,7.071v10.954h-2.62
	V14.723c0-3.282-1.785-5.327-4.883-5.327c-3.041,0-5.294,2.218-5.294,5.523v10.108h-2.63L62.845,0.107L62.845,0.107z"/>
<path fill="#FFFFFF" d="M79.96,19.909v-0.067c0-3.798,3.065-5.769,7.538-5.769c2.259,0,3.832,0.302,5.402,0.747v-0.544
	c0-3.138-1.917-4.782-5.219-4.782c-2.082,0-3.726,0.51-5.362,1.265L81.53,8.606c1.948-0.89,3.822-1.496,6.428-1.496
	c2.483,0,4.438,0.674,5.696,1.938c1.225,1.227,1.843,2.937,1.843,5.188v10.793h-2.598v-2.631c-1.225,1.578-3.25,3.01-6.347,3.01
	C83.239,25.407,79.96,23.533,79.96,19.909z M92.939,18.543v-1.636c-1.299-0.386-3.019-0.755-5.162-0.755
	c-3.271,0-5.153,1.438-5.153,3.551v0.072c0,2.211,2.046,3.511,4.438,3.511C90.309,23.286,92.939,21.346,92.939,18.543z"/>
<path fill="#FFFFFF" d="M97.957,0.107h2.628v24.92h-2.628V0.107z"/>
<path fill="#FFFFFF" d="M111.749,23.146c2.422,0,4.132-0.985,5.563-2.489l1.644,1.471c-1.785,1.981-3.929,3.312-7.272,3.312
	c-4.852,0-8.812-3.724-8.812-9.223c0-5.111,3.583-9.215,8.466-9.215c5.227,0,8.229,4.168,8.229,9.355c0,0.238,0,0.509-0.035,0.918
	h-13.995C105.912,21.002,108.643,23.146,111.749,23.146z M116.911,15.164c-0.315-3.213-2.153-5.94-5.64-5.94
	c-3.041,0-5.359,2.529-5.736,5.94H116.911z"/>
<path fill="#FFFFFF" d="M122.361,20.352V9.698h-2.459V7.382h2.459V2.055h2.627v5.327h5.607v2.316h-5.607v10.31
	c0,2.152,1.203,2.936,2.979,2.936c0.88,0,1.634-0.166,2.554-0.61v2.253c-0.92,0.479-1.902,0.748-3.172,0.748
	C124.514,25.333,122.361,23.938,122.361,20.352z"/>
<path fill="#FFFFFF" d="M135.134,9.147h-2.532V7.612h2.532V5.91c0-1.981,0.541-3.553,1.529-4.547C137.559,0.477,138.781,0,140.32,0
	c1.052,0,1.809,0.14,2.598,0.411V1.98c-0.986-0.304-1.71-0.445-2.598-0.445c-2.394,0-3.521,1.44-3.521,4.406v1.671h6.077v1.535
	H136.8v15.88h-1.667L135.134,9.147L135.134,9.147z"/>
<rect x="144.668" y="7.612" fill="#FFFFFF" width="1.665" height="17.416"/>
<path fill="#FFFFFF" d="M148.343,7.612h1.679v3.254c1.168-2.054,3.105-3.658,6.279-3.658c4.407,0,6.971,3.009,6.971,7.167v10.652
	h-1.676V14.681c0-3.575-2.014-5.936-5.533-5.936c-3.41,0-6.041,2.59-6.041,6.207v10.075h-1.679V7.612z"/>
<path fill="#FFFFFF" d="M165.075,16.391v-0.065c0-5.672,4.265-9.116,8.469-9.116c3.474,0,5.735,1.974,7.163,4.16V0.107h1.679v24.92
	h-1.679v-3.887c-1.502,2.285-3.721,4.299-7.163,4.299C169.34,25.439,165.075,22.062,165.075,16.391z M180.809,16.357v-0.066
	c0-4.472-3.479-7.479-7.093-7.479c-3.79,0-6.832,2.762-6.832,7.446v0.065c0,4.569,3.183,7.512,6.832,7.512
	C177.33,23.836,180.809,20.796,180.809,16.357z"/>
<path fill="#FFFFFF" d="M184.118,16.357v-0.066c0-5.056,3.554-9.083,8.271-9.083c4.883,0,7.992,3.962,7.992,9.116
	c0,0.303,0,0.41-0.045,0.683h-14.441c0.312,4.339,3.42,6.854,6.832,6.854c2.695,0,4.545-1.185,5.975-2.721l1.16,1.02
	c-1.768,1.915-3.855,3.279-7.201,3.279C188.083,25.439,184.118,21.79,184.118,16.357z M198.564,15.502
	c-0.238-3.518-2.256-6.757-6.24-6.757c-3.461,0-6.117,2.902-6.43,6.757H198.564z"/>
<path fill="#FFFFFF" d="M202.523,7.612h1.67v4.956c1.363-3.108,4.271-5.36,7.717-5.221v1.834h-0.172
	c-4.027,0-7.545,3.039-7.545,8.713v7.133h-1.67V7.612z"/>
</svg>
