<svg xmlns="http://www.w3.org/2000/svg" width="212" height="31" viewBox="0 0 212 31"><style>.a{fill:#606A70;}.b{fill:#005E9C;}</style><title>  home-link</title><desc>  Created with Sketch.</desc><g fill="none"><path d="M0 7.6L1.7 7.6 1.7 10.7C2.8 8.9 4.4 7.2 7.5 7.2 10.5 7.2 12.4 9 13.3 11 14.5 9 16.4 7.2 19.6 7.2 23.8 7.2 26.3 10.1 26.3 14.5L26.3 25 24.7 25 24.7 14.7C24.7 10.9 22.7 8.7 19.5 8.7 16.6 8.7 14 11 14 14.9L14 25 12.3 25 12.3 14.6C12.3 11 10.3 8.7 7.2 8.7 4.1 8.7 1.7 11.5 1.7 15L1.7 25 0 25 0 7.6Z" class="a"/><path d="M27.6 29.8L28.2 28.4C29.2 28.8 29.9 29 31.2 29 33 29 34.2 28 35.5 24.9L27.1 7.6 29.1 7.6 36.3 23.2 42.6 7.6 44.4 7.6 36.9 25.6C35.4 29.3 33.6 30.6 31.1 30.6 29.8 30.6 28.8 30.4 27.6 29.8Z" class="a"/><path d="M44.3 16.3L44.3 16.2C44.3 11.2 48.2 7 53.4 7 56.7 7 58.8 8.4 60.4 10.1L58.7 12C57.3 10.5 55.7 9.3 53.3 9.3 49.7 9.3 47 12.4 47 16.2L47 16.2C47 20 49.8 23.1 53.5 23.1 55.7 23.1 57.5 22 58.9 20.4L60.6 22C58.8 24 56.7 25.4 53.4 25.4 48.2 25.4 44.3 21.2 44.3 16.3Z" class="b"/><path d="M62.8 0.1L65.5 0.1 65.5 10.4C66.6 8.5 68.5 7 71.5 7 75.8 7 78.3 9.9 78.3 14.1L78.3 25 75.7 25 75.7 14.7C75.7 11.4 73.9 9.4 70.8 9.4 67.7 9.4 65.5 11.6 65.5 14.9L65.5 25 62.8 25 62.8 0.1Z" class="b"/><path d="M80 19.9L80 19.8C80 16 83 14.1 87.5 14.1 89.8 14.1 91.3 14.4 92.9 14.8L92.9 14.3C92.9 11.1 91 9.5 87.7 9.5 85.6 9.5 84 10 82.3 10.8L81.5 8.6C83.5 7.7 85.4 7.1 88 7.1 90.4 7.1 92.4 7.8 93.7 9 94.9 10.3 95.5 12 95.5 14.2L95.5 25 92.9 25 92.9 22.4C91.7 24 89.6 25.4 86.6 25.4 83.2 25.4 80 23.5 80 19.9ZM92.9 18.5L92.9 16.9C91.6 16.5 89.9 16.2 87.8 16.2 84.5 16.2 82.6 17.6 82.6 19.7L82.6 19.8C82.6 22 84.7 23.3 87.1 23.3 90.3 23.3 92.9 21.3 92.9 18.5Z" class="b"/><polygon points="98 0.1 100.6 0.1 100.6 25 98 25" class="b"/><path d="M111.7 23.1C114.2 23.1 115.9 22.2 117.3 20.7L119 22.1C117.2 24.1 115 25.4 111.7 25.4 106.8 25.4 102.9 21.7 102.9 16.2 102.9 11.1 106.5 7 111.3 7 116.6 7 119.6 11.2 119.6 16.4 119.6 16.6 119.6 16.9 119.5 17.3L105.5 17.3C105.9 21 108.6 23.1 111.7 23.1ZM116.9 15.2C116.6 12 114.8 9.2 111.3 9.2 108.2 9.2 105.9 11.8 105.5 15.2L116.9 15.2Z" class="b"/><path d="M122.4 20.4L122.4 9.7 119.9 9.7 119.9 7.4 122.4 7.4 122.4 2.1 125 2.1 125 7.4 130.6 7.4 130.6 9.7 125 9.7 125 20C125 22.2 126.2 22.9 128 22.9 128.8 22.9 129.6 22.8 130.5 22.3L130.5 24.6C129.6 25.1 128.6 25.3 127.3 25.3 124.5 25.3 122.4 23.9 122.4 20.4Z" class="b"/><path d="M135.1 9.1L132.6 9.1 132.6 7.6 135.1 7.6 135.1 5.9C135.1 3.9 135.7 2.4 136.7 1.4 137.6 0.5 138.8 0 140.3 0 141.4 0 142.1 0.1 142.9 0.4L142.9 2C141.9 1.7 141.2 1.5 140.3 1.5 137.9 1.5 136.8 3 136.8 5.9L136.8 7.6 142.9 7.6 142.9 9.1 136.8 9.1 136.8 25 135.1 25 135.1 9.1Z" class="a"/><rect x="144.7" y="7.6" width="1.7" height="17.4" class="a"/><path d="M148.3 7.6L150 7.6 150 10.9C151.2 8.8 153.1 7.2 156.3 7.2 160.7 7.2 163.3 10.2 163.3 14.4L163.3 25 161.6 25 161.6 14.7C161.6 11.1 159.6 8.7 156.1 8.7 152.7 8.7 150 11.3 150 15L150 25 148.3 25 148.3 7.6Z" class="a"/><path d="M165.1 16.4L165.1 16.3C165.1 10.7 169.3 7.2 173.5 7.2 177 7.2 179.3 9.2 180.7 11.4L180.7 0.1 182.4 0.1 182.4 25 180.7 25 180.7 21.1C179.2 23.4 177 25.4 173.5 25.4 169.3 25.4 165.1 22.1 165.1 16.4ZM180.8 16.4L180.8 16.3C180.8 11.8 177.3 8.8 173.7 8.8 169.9 8.8 166.9 11.6 166.9 16.3L166.9 16.3C166.9 20.9 170.1 23.8 173.7 23.8 177.3 23.8 180.8 20.8 180.8 16.4Z" class="a"/><path d="M184.1 16.4L184.1 16.3C184.1 11.2 187.7 7.2 192.4 7.2 197.3 7.2 200.4 11.2 200.4 16.3 200.4 16.6 200.4 16.7 200.3 17L185.9 17C186.2 21.3 189.3 23.9 192.7 23.9 195.4 23.9 197.3 22.7 198.7 21.1L199.9 22.2C198.1 24.1 196 25.4 192.7 25.4 188.1 25.4 184.1 21.8 184.1 16.4ZM198.6 15.5C198.3 12 196.3 8.7 192.3 8.7 188.9 8.7 186.2 11.6 185.9 15.5L198.6 15.5Z" class="a"/><path d="M202.5 7.6L204.2 7.6 204.2 12.6C205.6 9.5 208.5 7.2 211.9 7.3L211.9 9.2 211.7 9.2C207.7 9.2 204.2 12.2 204.2 17.9L204.2 25 202.5 25 202.5 7.6Z" class="a"/></g></svg>
