<?xml version="1.0" encoding="utf-8"?>
<!-- Generator: Adobe Illustrator 16.0.0, SVG Export Plug-In . SVG Version: 6.00 Build 0)  -->
<!DOCTYPE svg PUBLIC "-//W3C//DTD SVG 1.1//EN" "http://www.w3.org/Graphics/SVG/1.1/DTD/svg11.dtd">
<svg version="1.1" id="Layer_1" xmlns="http://www.w3.org/2000/svg" xmlns:xlink="http://www.w3.org/1999/xlink" x="0px" y="0px"
	 width="29.273px" height="36.84px" viewBox="0 0 29.273 36.84" enable-background="new 0 0 29.273 36.84" xml:space="preserve">
<path fill="#FFFFFF" d="M11.641,36.842C7.701,30.983,3.228,25.92,0.948,19.48C-1.228,13.325,0.391,7.368,5.303,3.271
	c4.561-3.814,11.488-4.349,16.646-1.31c5.4,3.192,8.465,9.234,6.926,15.304c-0.752,2.954-2.492,5.972-4.594,8.188
	C20.444,29.504,16.001,32.977,11.641,36.842z M3.08,12.76c-0.854,6.52,3.62,12.506,9.947,13.293
	c6.561,0.82,12.33-3.717,13.19-10.369c0.806-6.195-3.913-12.241-10.125-12.981C9.757,1.945,3.905,6.47,3.08,12.76z"/>
</svg>
