<svg id="Calque_1" data-name="Calque 1" xmlns="http://www.w3.org/2000/svg" viewBox="0 0 37.32 34.85"><defs><style>.cls-1{fill:#221f20;stroke:#fff;stroke-miterlimit:10;stroke-width:0.25px;}</style></defs><title>Bathroom</title><path class="cls-1" d="M35.88,24H2.52a1.85,1.85,0,1,1,0-3.71H35.88a1.85,1.85,0,1,1,0,3.71ZM2.52,21.5a.62.62,0,0,0,0,1.24H35.88a.62.62,0,0,0,0-1.24Z" transform="translate(-0.54 -1.61)"/><path class="cls-1" d="M29.27,33.86H9.13a4.36,4.36,0,0,1-4.2-3.27L3.14,23.48a.63.63,0,0,1,.12-.56.7.7,0,0,1,.49-.19H34.65a.56.56,0,0,1,.49.25.59.59,0,0,1,.12.56l-1.79,7.11A4.37,4.37,0,0,1,29.27,33.86ZM4.56,24l1.61,6.3a3.17,3.17,0,0,0,3,2.35H29.34a3.17,3.17,0,0,0,3-2.35L33.85,24Z" transform="translate(-0.54 -1.61)"/><path class="cls-1" d="M9.32,36.33a.37.37,0,0,1-.25-.06.55.55,0,0,1-.25-.8L10.06,33a.59.59,0,1,1,1.05.56L9.87,36A.65.65,0,0,1,9.32,36.33Z" transform="translate(-0.54 -1.61)"/><path class="cls-1" d="M29.71,36.33a.59.59,0,0,1-.56-.37l-1.24-2.47A.59.59,0,0,1,29,32.94l1.24,2.47a.65.65,0,0,1-.25.8C29.89,36.33,29.83,36.33,29.71,36.33Z" transform="translate(-0.54 -1.61)"/><path class="cls-1" d="M14.88,21.5H3.14a.58.58,0,0,1-.62-.62A3.06,3.06,0,0,1,5.61,17.8a3.67,3.67,0,0,1,1.61.43,3.05,3.05,0,0,1,2.72-1.67,3.23,3.23,0,0,1,2.47,1.24h0a3.06,3.06,0,0,1,3.09,3.09A.58.58,0,0,1,14.88,21.5Zm-11-1.24H14.2A1.8,1.8,0,0,0,12.47,19h-.19a.62.62,0,0,1-.68-.31A1.73,1.73,0,0,0,10,17.8,1.91,1.91,0,0,0,8.14,19.4a.6.6,0,0,1-.43.49.56.56,0,0,1-.62-.19A2.08,2.08,0,0,0,5.61,19,1.8,1.8,0,0,0,3.88,20.27Z" transform="translate(-0.54 -1.61)"/><path class="cls-1" d="M35.27,20.89H34V7.29A4.3,4.3,0,0,0,29.71,3C27.17,3,26,5.13,26,7.29H24.76c0-3.27,2-5.56,4.94-5.56a5.54,5.54,0,0,1,5.56,5.56Z" transform="translate(-0.54 -1.61)"/><path class="cls-1" d="M22.91,13.16a.58.58,0,0,1-.62-.62v-.31a.62.62,0,1,1,1.24,0v.31A.58.58,0,0,1,22.91,13.16Z" transform="translate(-0.54 -1.61)"/><path class="cls-1" d="M22.91,16a.58.58,0,0,1-.62-.62v-.68a.62.62,0,0,1,1.24,0v.68A.62.62,0,0,1,22.91,16Z" transform="translate(-0.54 -1.61)"/><path class="cls-1" d="M22.91,18.42a.58.58,0,0,1-.62-.62v-.31a.62.62,0,0,1,1.24,0v.31A.58.58,0,0,1,22.91,18.42Z" transform="translate(-0.54 -1.61)"/><path class="cls-1" d="M25.38,13.16a.58.58,0,0,1-.62-.62v-.31a.62.62,0,1,1,1.24,0v.31A.58.58,0,0,1,25.38,13.16Z" transform="translate(-0.54 -1.61)"/><path class="cls-1" d="M25.38,16a.58.58,0,0,1-.62-.62v-.68a.62.62,0,0,1,1.24,0v.68A.62.62,0,0,1,25.38,16Z" transform="translate(-0.54 -1.61)"/><path class="cls-1" d="M25.38,18.42a.58.58,0,0,1-.62-.62v-.31a.62.62,0,0,1,1.24,0v.31A.58.58,0,0,1,25.38,18.42Z" transform="translate(-0.54 -1.61)"/><path class="cls-1" d="M27.85,13.16a.58.58,0,0,1-.62-.62v-.31a.62.62,0,1,1,1.24,0v.31A.58.58,0,0,1,27.85,13.16Z" transform="translate(-0.54 -1.61)"/><path class="cls-1" d="M27.85,16a.58.58,0,0,1-.62-.62v-.68a.62.62,0,0,1,1.24,0v.68A.62.62,0,0,1,27.85,16Z" transform="translate(-0.54 -1.61)"/><path class="cls-1" d="M27.85,18.42a.58.58,0,0,1-.62-.62v-.31a.62.62,0,0,1,1.24,0v.31A.58.58,0,0,1,27.85,18.42Z" transform="translate(-0.54 -1.61)"/><path class="cls-1" d="M27.85,10.38H22.91a.58.58,0,0,1-.62-.62,3.09,3.09,0,1,1,6.18,0A.58.58,0,0,1,27.85,10.38Zm-4.2-1.24h3.52a1.8,1.8,0,0,0-1.73-1.24A1.88,1.88,0,0,0,23.65,9.15Z" transform="translate(-0.54 -1.61)"/></svg>