<?xml version="1.0" encoding="UTF-8" standalone="no"?>
<!-- Generator: Adobe Illustrator 21.0.0, SVG Export Plug-In . SVG Version: 6.00 Build 0)  -->

<svg
   xmlns:dc="http://purl.org/dc/elements/1.1/"
   xmlns:cc="http://creativecommons.org/ns#"
   xmlns:rdf="http://www.w3.org/1999/02/22-rdf-syntax-ns#"
   xmlns:svg="http://www.w3.org/2000/svg"
   xmlns="http://www.w3.org/2000/svg"
   xmlns:sodipodi="http://sodipodi.sourceforge.net/DTD/sodipodi-0.dtd"
   xmlns:inkscape="http://www.inkscape.org/namespaces/inkscape"
   version="1.1"
   id="Calque_1"
   x="0px"
   y="0px"
   viewBox="0 0 38.3 38.3"
   style="enable-background:new 0 0 38.3 38.3;"
   xml:space="preserve"
   inkscape:version="0.91 r13725"
   sodipodi:docname="bedroom_black (last).svg"><metadata
     id="metadata13"><rdf:RDF><cc:Work
         rdf:about=""><dc:format>image/svg+xml</dc:format><dc:type
           rdf:resource="http://purl.org/dc/dcmitype/StillImage" /></cc:Work></rdf:RDF></metadata><defs
     id="defs11" /><sodipodi:namedview
     pagecolor="#ffffff"
     bordercolor="#666666"
     borderopacity="1"
     objecttolerance="10"
     gridtolerance="10"
     guidetolerance="10"
     inkscape:pageopacity="0"
     inkscape:pageshadow="2"
     inkscape:window-width="1920"
     inkscape:window-height="1015"
     id="namedview9"
     showgrid="false"
     showguides="true"
     inkscape:guide-bbox="true"
     inkscape:zoom="22.627417"
     inkscape:cx="25.339343"
     inkscape:cy="14.447549"
     inkscape:window-x="1920"
     inkscape:window-y="0"
     inkscape:window-maximized="1"
     inkscape:current-layer="g5"><sodipodi:guide
       position="0.75000001,14.148438"
       orientation="1,0"
       id="guide4145" /><sodipodi:guide
       position="1.5491931,13.713227"
       orientation="1,0"
       id="guide4147" /></sodipodi:namedview><style
     type="text/css"
     id="style3">
	.st0{fill:#231F20;stroke:#FFFFFF;stroke-width:0.5;stroke-miterlimit:10;}
</style><g
     id="g5"><path
       class="st0"
       d="m 35.3,21.5 0,-4.6 c 0,-3.2 -2.6,-9.8 -5.8,-9.8 l -20.6,0 c -3.2,0 -5.8,6.6 -5.8,9.8 l 0,4.6 c -1.5,0.3 -2.6,1.6 -2.6,3.2 l 0,3.9 c 0,0.4 0.3,0.6 0.6,0.6 l 0.6,0 0,5.2 1.3,0 0,-3.2 32.2,0 0,3.2 1.3,0 0,-5.2 0.6,0 c 0.4,0 0.598194,-0.300006 0.6,-0.6 l 0.0235,-3.902561 C 37.725306,23.104687 36.76734,21.8 35.3,21.5 Z M 4.4,16.9 c 0,-2.5 2,-8.5 4.5,-8.5 l 20.6,0 c 2.5,0 4.5,6 4.5,8.5 l 0,4.5 -3.2,0 0,-3.9 c 0,-0.3 -0.2,-0.5 -0.4,-0.6 -0.1,-0.1 -3.4,-1.3 -5.1,-1.3 -1.7,0 -4.9,1.3 -5.1,1.3 -0.2,0.1 -0.4,0.3 -0.4,0.6 l 0,3.9 -1.3,0 0,-3.9 C 18.5,17.2 18.3,17 18.1,16.9 18,16.8 14.7,15.6 13,15.6 11.3,15.6 8.1,16.9 7.9,16.9 7.7,17 7.5,17.2 7.5,17.5 l 0,3.9 -3.1,0 z m 32,11 -34.6,0 0,-3.2 c 0,-1.1 0.9,-1.9 1.9,-1.9 l 30.8,0 c 1.092188,0 1.922274,0.79701 1.916459,1.920286 z"
       id="path7"
       inkscape:connector-curvature="0"
       style="fill:#231f20;stroke:#ffffff;stroke-width:0.5;stroke-miterlimit:10"
       sodipodi:nodetypes="csssscsssccccccccsscccssssccscscsccscscscccccsssc" /></g></svg>