<?xml version="1.0" encoding="utf-8"?>
<!-- Generator: Adobe Illustrator 21.0.0, SVG Export Plug-In . SVG Version: 6.00 Build 0)  -->
<svg version="1.1" id="Layer_1" xmlns="http://www.w3.org/2000/svg" xmlns:xlink="http://www.w3.org/1999/xlink" x="0px" y="0px"
	 viewBox="0 0 504 367.5" style="enable-background:new 0 0 504 367.5;" xml:space="preserve">
<style type="text/css">
	.st0{fill:#231F20;}
</style>
<title>bed</title>
<path class="st0" d="M34.3,188.9H21V10.8c0.1-5.3-3.7-9.8-8.9-10.7C6.3-0.7,1,3.2,0.1,9C0,9.5,0,10,0,10.5v346.2
	c-0.1,5.3,3.7,9.8,8.9,10.7c5.7,0.9,11.1-3.1,12-8.9c0.1-0.5,0.1-1,0.1-1.5v-63h462v62.7c-0.1,5.3,3.7,9.8,8.9,10.7
	c5.7,0.9,11.1-3.1,12-8.8c0.1-0.5,0.1-1,0.1-1.5V210c0-14.3-6.7-20.9-21-21v-42c0-31.9-20.6-52.5-52.5-52.5H189
	c-31.9,0-52.5,20.6-52.5,52.5v41.7L34.3,188.9z M157.5,147c0-27.4,19.7-31.5,31.5-31.5h241.5c11.8,0,31.5,4.1,31.5,31.5v42H157.5
	V147z"/>
<path class="st0" d="M79.2,72C47,72,20.9,98.2,20.9,130.4c0,32.2,26.1,58.3,58.3,58.3s58.3-26.1,58.3-58.3c0,0,0,0,0,0
	C137.6,98.2,111.4,72,79.2,72z M79.2,170c-21.9,0-39.6-17.7-39.6-39.6c0-21.9,17.7-39.6,39.6-39.6c21.9,0,39.6,17.7,39.6,39.6
	C118.9,152.2,101.1,170,79.2,170L79.2,170z"/>
</svg>
