<svg id="Calque_1" data-name="Calque 1" xmlns="http://www.w3.org/2000/svg" viewBox="0 0 33.25 37.58"><defs><style>.cls-1{fill:#231F20;fill-rule:evenodd;}.cls-2{fill:#231F20;}.cls-3{fill:none;stroke:#231F20;stroke-miterlimit:10;}</style></defs><title>Exposure</title><path class="cls-1" d="M17.33,3.59a.58.58,0,0,1-1.16,0V3a2.39,2.39,0,0,1,.18-.89v0a2.29,2.29,0,0,1,.49-.73l0,0A2.3,2.3,0,0,1,19.37.87a2.3,2.3,0,0,1,.75.5l0,0a2.57,2.57,0,0,1,.46.71,2.36,2.36,0,0,1,.18.89h0v.58a.58.58,0,1,1-1.16,0V3a1.21,1.21,0,0,0-.08-.44,1.45,1.45,0,0,0-.23-.36l0,0a1.23,1.23,0,0,0-.38-.25,1.18,1.18,0,0,0-.44-.09,1.2,1.2,0,0,0-.44.09,1.14,1.14,0,0,0-.35.22l0,0a1.28,1.28,0,0,0-.24.35v0a1.08,1.08,0,0,0-.09.44Zm.75,5.67" transform="translate(-1.92 -0.69)"/><path class="cls-1" d="M21.32,17.85" transform="translate(-1.92 -0.69)"/><path class="cls-1" d="M16.07,24.27" transform="translate(-1.92 -0.69)"/><path class="cls-1" d="M20.65,30.12" transform="translate(-1.92 -0.69)"/><path class="cls-1" d="M18.31,28.36" transform="translate(-1.92 -0.69)"/><path class="cls-1" d="M25.59,29.65" transform="translate(-1.92 -0.69)"/><path class="cls-1" d="M12.43,15.43" transform="translate(-1.92 -0.69)"/><path class="cls-2" d="M17.37,15.56a.59.59,0,0,0,.51-.64V13.25c0-.36.18-.41.39-.13l1.48,1.93a1.27,1.27,0,0,0,.83.51c.24,0,.43-.29.43-.64V11.55a.52.52,0,1,0-1,0v1.58c0,.35-.18.41-.39.13l-1.4-1.84a1.31,1.31,0,0,0-.86-.52c-.26,0-.47.29-.47.65v3.37a.59.59,0,0,0,.51.64Zm0,0" transform="translate(-1.92 -0.69)"/><path class="cls-2" d="M19.29,28.9c-.8-.21-1-.31-1-.63s.21-.41.6-.41a1.66,1.66,0,0,1,.65.14c.33.14.68.15.83-.07a.52.52,0,0,0-.28-.72A2.76,2.76,0,0,0,18.9,27a1.46,1.46,0,0,0-1.63,1.42c0,.92.61,1.18,1.54,1.42.78.2.94.34.94.61s-.25.44-.67.44a1.87,1.87,0,0,1-.86-.21c-.32-.16-.67-.19-.84,0a.51.51,0,0,0,.22.74,3,3,0,0,0,1.45.37c1,0,1.71-.52,1.71-1.46s-.53-1.15-1.48-1.4Zm0,0" transform="translate(-1.92 -0.69)"/><path class="cls-2" d="M12.61,23.77a.85.85,0,0,0,.65-.61l1.17-3.47c.12-.34,0-.61-.33-.61a.86.86,0,0,0-.73.62l-.59,1.92c-.1.34-.28.34-.39,0l-.64-1.94c-.11-.34-.4-.61-.64-.61s-.53.27-.64.61l-.64,1.94c-.11.34-.29.34-.39,0l-.59-1.92a.86.86,0,0,0-.74-.62c-.3,0-.45.27-.34.61L9,23.16a.84.84,0,0,0,.65.61.85.85,0,0,0,.66-.61l.63-1.83c.11-.34.31-.34.42,0L12,23.16a.85.85,0,0,0,.65.61Zm0,0" transform="translate(-1.92 -0.69)"/><path class="cls-2" d="M28.26,22.82H27a.58.58,0,0,1-.64-.49c0-.27.29-.48.64-.48h.9c.36,0,.65-.2.65-.46s-.29-.46-.65-.46H27c-.36,0-.64-.21-.64-.47S26.66,20,27,20h1.2c.36,0,.64-.2.64-.45s-.29-.46-.64-.46H26a.64.64,0,0,0-.64.64v3.37a.65.65,0,0,0,.64.64h2.26c.36,0,.64-.2.64-.46s-.29-.45-.64-.45Z" transform="translate(-1.92 -0.69)"/><path class="cls-2" d="M26.34,15.28c.08-.1.33-.42.1-.67s-.57,0-.68,0l-5.24,3.2a1.72,1.72,0,0,1-1.08.19,3,3,0,0,0-.55-.05,3.31,3.31,0,0,0-3.31,3.3,3.15,3.15,0,0,0,.05.58,1.48,1.48,0,0,1-.23,1.07l-3.25,4.2c-.08.1-.33.43-.1.67a.35.35,0,0,0,.27.12.85.85,0,0,0,.42-.15l4.82-3a1.76,1.76,0,0,1,.94-.26l.39,0a3.31,3.31,0,0,0,3.31-3.3,2.48,2.48,0,0,0,0-.28,1.54,1.54,0,0,1,.36-.79Zm-9.14,9-.14.09-3.17,1.94c-.3.19-.37.11-.16-.17l2.2-2.85.08-.11a.09.09,0,0,1,.16,0l.08.1a3.31,3.31,0,0,0,.84.77l.12.07c.07,0,.06.11,0,.16Zm1.68-.33a2.66,2.66,0,1,1,2.66-2.66,2.67,2.67,0,0,1-2.66,2.66Zm3.18-4.18-.08.1c0,.05-.09.05-.12,0l0-.09a3.43,3.43,0,0,0-1-1.16l-.08,0s0-.08,0-.11l.1-.06L24.6,16.1c.31-.19.37-.11.16.17Zm0,0" transform="translate(-1.92 -0.69)"/><ellipse class="cls-3" cx="16.5" cy="20.91" rx="12.42" ry="12.5"/><ellipse class="cls-3" cx="16.63" cy="20.85" rx="16.13" ry="16.23"/></svg>