<svg id="Capa_1" data-name="Capa 1" xmlns="http://www.w3.org/2000/svg" viewBox="0 0 516 457.34"><defs><style>.cls-1{stroke:#fff;stroke-miterlimit:10;stroke-width:4px;}</style></defs><title>fireplace</title><path class="cls-1" d="M498.82,434.74h-7.18V415.22A12.28,12.28,0,0,0,479.38,403H460.21V93.05H496.8A13.32,13.32,0,0,0,510.1,79.74V42.64A13.32,13.32,0,0,0,496.8,29.33H394a7.23,7.23,0,0,0,0,14.46H495.65V78.59H16.35V43.79H359.64a7.23,7.23,0,0,0,0-14.46H15.2A13.32,13.32,0,0,0,1.9,42.64v37.1A13.32,13.32,0,0,0,15.2,93.05H51.79V231a7.23,7.23,0,0,0,14.46,0v-138h379.5V403h-29V279.89c0-88.63-72.11-160.74-160.74-160.74S95.26,191.26,95.26,279.89V403h-29V265.82a7.23,7.23,0,0,0-14.46,0V403H32.62a12.28,12.28,0,0,0-12.27,12.27v19.52H13.18A13.19,13.19,0,0,0,0,447.92v21.57a13.19,13.19,0,0,0,13.18,13.18H498.82A13.19,13.19,0,0,0,512,469.49V447.92A13.2,13.2,0,0,0,498.82,434.74ZM109.72,279.89c0-80.66,65.62-146.28,146.28-146.28s146.28,65.62,146.28,146.28V403H384v-2.39a34.74,34.74,0,0,0-34.7-34.7H319.11C333.6,343.57,330.2,317.28,330,316a7.23,7.23,0,0,0-13.44-2.58,187.57,187.57,0,0,1-12.15,18.25c-9.89,13-15.37,15.57-17.22,16.08,1.15-1.89,3.38-4.73,5.26-7.14,7.69-9.81,19.31-24.64,25.57-49,5.18-20.17-.49-39.27-16.41-55.25a92,92,0,0,0-25-17.63,7.23,7.23,0,0,0-9.3,10c3.08,5.71,5.2,13.15,4.44,15.42a5.05,5.05,0,0,1-1.22.17h-.65c-4.29,0-6.18-1.74-7.34-3.26-7.15-9.35-3.62-35.68.29-50.08a7.23,7.23,0,0,0-12.09-7c-3.93,3.93-38.32,39.21-34.34,65.7,1.94,12.93,11,21.83,18.31,29,3.58,3.5,8.47,8.3,8.49,10.51,0,.65-.72,1.76-1.94,3a4.35,4.35,0,0,1-3.31,1.55h0c-7.64,0-20.8-14.8-27.28-24.8a7.23,7.23,0,0,0-11.22-1.14c-.77.79-18.88,19.7-17.93,61.58q0,.91.06,1.8a64.69,64.69,0,0,0,12.13,34.74H162.67a34.74,34.74,0,0,0-34.7,34.7V403H109.72V279.89Zm135.15-11.57c-6.35-6.22-12.91-12.65-14.13-20.79-1.32-8.79,5.3-21.71,13.59-33.41-.94,12.68,0,26.86,6.77,35.72,4.47,5.85,11,9,18.83,8.94l1.2,0c8-.31,11.68-4.68,13.15-7.26a18,18,0,0,0,2-9.7c11.15,9.14,23.27,24.57,17.72,46.17-5.51,21.44-15.59,34.3-22.95,43.7-3.57,4.56-6.39,8.16-7.9,11.8-2.38,5.77-1.06,11.34,3.64,15.28a14.87,14.87,0,0,0,9.67,3.55h0c8,0,16.66-6,26.93-18.73a50,50,0,0,1-12.88,22.3H212.9c-10.26-9.58-16.22-22.07-16.84-35.41q0-.72-.05-1.45c-.48-21.46,4.68-35.69,8.83-43.56,7.52,9.52,20.25,22.7,33.16,22.7h0a18.86,18.86,0,0,0,13.53-5.78c4.12-4.12,6.2-8.58,6.17-13.27C257.65,280.85,251.44,274.76,244.87,268.32Zm-34.73,112H349.33a20.26,20.26,0,0,1,20.24,20.24V403H142.43v-2.39a20.26,20.26,0,0,1,20.24-20.24ZM34.81,417.41H477.19v17.33H34.81Zm462.73,50.8H14.46v-19H497.54v19Z" transform="translate(2 -27.33)"/></svg>