<svg id="Calque_1" data-name="Calque 1" xmlns="http://www.w3.org/2000/svg" viewBox="0 0 36.25 29.82"><defs><style>.cls-1{stroke:#fff;stroke-miterlimit:10;stroke-width:0.25px;}</style></defs><title>Garage</title><path class="cls-1" d="M29.2,23.16c-.43-3.5-2.37-6.08-4.76-6.08H13.82c-2.4,0-4.33,2.57-4.76,6.08a4.88,4.88,0,0,0-2.31,4.42,5.53,5.53,0,0,0,.93,3.16v3.84h5.05V32.66H25.53v1.92h5V30.74a5.48,5.48,0,0,0,.93-3.16,4.89,4.89,0,0,0-2.31-4.42ZM11,29.24a1.65,1.65,0,1,1,1.65-1.65A1.65,1.65,0,0,1,11,29.24Zm.59-6.73a5.82,5.82,0,0,0-.93.08c.47-2.3,1.71-4,3.12-4H24.44c1.41,0,2.65,1.69,3.12,4-.16,0-.32,0-.49,0,0,0,0,0,0,0a2.64,2.64,0,1,0-5.27,0Zm12.3,6.54H14.33a.5.5,0,1,1,0-1h9.58a.5.5,0,1,1,0,1Zm0-1.45H14.33a.5.5,0,0,1,0-1h9.58a.51.51,0,0,1,.5.5.5.5,0,0,1-.5.5Zm-1.11-5.1a1.63,1.63,0,0,1,3.26,0Zm4.42,6.73a1.65,1.65,0,1,1,1.65-1.65,1.65,1.65,0,0,1-1.65,1.65ZM37.13,5V34.59h-1V6h-34V34.59h-1V5ZM2.81,6.73H35.44v2H2.81Zm0,2.82H35.44v2H2.81Zm0,2.81H35.44v2H2.81Zm0,0" transform="translate(-1 -4.9)"/></svg>