<?xml version="1.0" encoding="utf-8"?>
<!-- Generator: Adobe Illustrator 21.0.0, SVG Export Plug-In . SVG Version: 6.00 Build 0)  -->
<svg version="1.1" id="Calque_1" xmlns="http://www.w3.org/2000/svg" xmlns:xlink="http://www.w3.org/1999/xlink" x="0px" y="0px"
	 viewBox="0 0 35.5 36.1" style="enable-background:new 0 0 35.5 36.1;" xml:space="preserve">
<style type="text/css">
	.st0{clip-path:url(#SVGID_2_);}
	.st1{fill:#231F20;stroke:#FFFFFF;stroke-width:0.5;stroke-miterlimit:10;}
	.st2{fill:#FFFFFF;}
	.st3{fill:none;stroke:#231F20;stroke-width:0.25;stroke-miterlimit:10;}
	.st4{fill:#231F20;}
	.st5{fill:none;stroke:#231F20;stroke-width:1.25;stroke-miterlimit:10;}
	.st6{fill:none;stroke:#231F20;stroke-miterlimit:10;}
</style>
<title>Property-size</title>
<g>
	<g>
		<g>
			<defs>
				<rect id="SVGID_1_" x="0.3" y="0.3" width="35.1" height="35.7"/>
			</defs>
			<clipPath id="SVGID_2_">
				<use xlink:href="#SVGID_1_"  style="overflow:visible;"/>
			</clipPath>
			<g class="st0">
				<path class="st1" d="M31,11c0.1-0.2,0-0.6-0.5-0.9L16.8,0.6c-0.7-0.4-1.6-0.4-2.3,0L9.2,4.2V2.8C9.2,2.3,8.9,2,8.5,2l0,0h-3
					C5.1,2,4.7,2.3,4.7,2.8l0,0V7c0,0.2,0,0.4-0.2,0.5l-3.8,2.6c-0.5,0.4-0.5,0.7-0.5,0.9c0.1,0.2,0.3,0.5,0.9,0.5h1.5
					c0.4,0,0.7,0.3,0.7,0.7l0,0v15.1c0,0.8,0.7,1.5,1.5,1.5h21.4c0.8,0,1.5-0.7,1.5-1.5V12.2c0-0.4,0.3-0.7,0.7-0.7l0,0h1.5
					C30.7,11.5,30.9,11.2,31,11z M9.9,20.5c0,0.2-0.2,0.3-0.3,0.3l0,0H6.2c-0.2,0-0.3-0.2-0.3-0.3l0,0v-2.9c0-0.2,0.2-0.3,0.3-0.3
					l0,0h3.3c0.2,0,0.3,0.2,0.3,0.3l0,0L9.9,20.5L9.9,20.5z M9.9,15.9c0,0.2-0.2,0.3-0.3,0.3l0,0H6.2c-0.2,0-0.3-0.2-0.3-0.3l0,0
					v-2.7c0-0.2,0.2-0.3,0.3-0.3l0,0h3.3c0.2,0,0.3,0.2,0.3,0.3l0,0L9.9,15.9L9.9,15.9z M14.9,20.5c0,0.2-0.2,0.3-0.3,0.3l0,0h-3.4
					c-0.2,0-0.3-0.2-0.3-0.3l0,0v-2.9c0-0.2,0.2-0.3,0.3-0.3l0,0h3.3c0.2,0,0.3,0.2,0.3,0.3l0,0L14.9,20.5z M14.9,15.9
					c0,0.2-0.2,0.3-0.3,0.3l0,0h-3.4c-0.2,0-0.3-0.2-0.3-0.3l0,0v-2.7c0-0.2,0.2-0.3,0.3-0.3l0,0h3.3c0.2,0,0.3,0.2,0.3,0.3l0,0
					L14.9,15.9z M23.6,27.5c0,0.2-0.2,0.3-0.3,0.3l0,0h-5c-0.2,0-0.3-0.2-0.3-0.3l0,0v-8c0-0.2,0.2-0.3,0.3-0.3l0,0h5
					c0.2,0,0.3,0.2,0.3,0.3l0,0V27.5z"/>
			</g>
		</g>
	</g>
</g>
<g>
	<line class="st2" x1="4.9" y1="33.2" x2="26.7" y2="33.2"/>
	<g>
		<line class="st3" x1="6.7" y1="33.2" x2="24.9" y2="33.2"/>
		<g>
			<polygon class="st4" points="7.1,34.4 4.9,33.2 7.1,31.9 			"/>
		</g>
		<g>
			<polygon class="st4" points="24.5,34.4 26.7,33.2 24.5,31.9 			"/>
		</g>
	</g>
</g>
<line class="st5" x1="3.8" y1="31" x2="3.8" y2="35.6"/>
<line class="st5" x1="27.8" y1="31" x2="27.8" y2="35.7"/>
<line class="st6" x1="6.7" y1="33.2" x2="25.4" y2="33.2"/>
<g>
	<line class="st2" x1="32.7" y1="2.3" x2="32.7" y2="26.7"/>
	<g>
		<line class="st3" x1="32.7" y1="4.1" x2="32.7" y2="24.9"/>
		<g>
			<polygon class="st4" points="31.5,4.4 32.7,2.3 34,4.4 			"/>
		</g>
		<g>
			<polygon class="st4" points="31.5,24.6 32.7,26.7 34,24.6 			"/>
		</g>
	</g>
</g>
<line class="st5" x1="35.1" y1="1.1" x2="30.4" y2="1.1"/>
<line class="st5" x1="35" y1="28" x2="30.5" y2="28"/>
<line class="st6" x1="32.8" y1="3.4" x2="32.8" y2="25.7"/>
</svg>
