<?xml version="1.0" encoding="utf-8"?>
<!-- Generator: Adobe Illustrator 21.0.0, SVG Export Plug-In . SVG Version: 6.00 Build 0)  -->
<svg version="1.1" id="Calque_1" xmlns="http://www.w3.org/2000/svg" xmlns:xlink="http://www.w3.org/1999/xlink" x="0px" y="0px"
	 viewBox="0 0 26.4 22.4" style="enable-background:new 0 0 26.4 22.4;" xml:space="preserve">
<style type="text/css">
	.st0{fill:#231F20;}
</style>
<title>Property view</title>
<path class="st0" d="M5.7,22.4c-3.2,0-5.7-2.6-5.7-5.7S2.6,11,5.7,11c3.2,0,5.7,2.6,5.7,5.7l0,0C11.5,19.9,8.9,22.5,5.7,22.4
	L5.7,22.4z M5.7,11.8c-2.7,0-4.9,2.2-4.9,4.9s2.2,4.9,4.9,4.9s4.9-2.2,4.9-4.9C10.7,14,8.5,11.8,5.7,11.8
	C5.8,11.7,5.8,11.7,5.7,11.8L5.7,11.8z"/>
<path class="st0" d="M11.1,6.8c-0.2,0-0.4-0.2-0.4-0.4C10.8,4.8,9.6,3.3,8,3.1C6.5,3,5.1,4,4.8,5.4C4.7,5.6,4.4,5.7,4.2,5.6
	C4,5.5,3.9,5.3,4,5.1c0.7-2,2.9-3,4.9-2.3c1.5,0.5,2.5,2,2.5,3.6C11.5,6.6,11.3,6.8,11.1,6.8L11.1,6.8z"/>
<path class="st0" d="M11.1,17.1c-0.2,0-0.4-0.2-0.4-0.4V6.4c0-0.2,0.2-0.4,0.4-0.4s0.4,0.2,0.4,0.4l0,0v10.3
	C11.5,17,11.3,17.1,11.1,17.1L11.1,17.1z"/>
<path class="st0" d="M0.7,15.4H0.6c-0.2-0.1-0.3-0.3-0.2-0.5l0,0L4,5.3C4,5.1,4.3,5,4.5,5.1s0.3,0.3,0.2,0.5l0,0L1,15.2
	C1,15.3,0.9,15.4,0.7,15.4L0.7,15.4z"/>
<path class="st0" d="M10.2,2.4C10,2.4,9.8,2.2,9.8,2c0-0.7-0.5-1.2-1.1-1.2c-0.5,0-1,0.3-1.2,0.8C7.4,1.8,7.2,1.9,7,1.9
	C6.8,1.8,6.7,1.6,6.7,1.4c0,0,0,0,0-0.1c0.4-1,1.6-1.5,2.6-1.1c0.7,0.3,1.2,1,1.2,1.7C10.6,2.2,10.4,2.4,10.2,2.4L10.2,2.4z"/>
<path class="st0" d="M10.2,4.1c-0.2,0-0.4-0.2-0.4-0.4V2c0-0.2,0.2-0.4,0.4-0.4s0.4,0.2,0.4,0.4l0,0v1.8C10.6,4,10.4,4.1,10.2,4.1
	L10.2,4.1z"/>
<path class="st0" d="M6.6,3.3L6.6,3.3C6.2,3.3,6.1,3,6.2,2.8l0,0l0.5-1.4C6.8,1.2,7,1.1,7.2,1.2l0,0c0.2,0.1,0.3,0.3,0.2,0.5
	L6.9,3.1C6.9,3.3,6.7,3.4,6.6,3.3L6.6,3.3z"/>
<path class="st0" d="M20.7,22.4c-3.2,0-5.7-2.6-5.7-5.7c0-3.2,2.6-5.7,5.7-5.7c3.2,0,5.7,2.6,5.7,5.7l0,0
	C26.4,19.9,23.8,22.5,20.7,22.4L20.7,22.4z M20.7,11.8c-2.7,0-4.9,2.2-4.9,4.9s2.2,4.9,4.9,4.9s4.9-2.2,4.9-4.9S23.5,11.8,20.7,11.8
	C20.7,11.7,20.7,11.7,20.7,11.8L20.7,11.8z"/>
<path class="st0" d="M15.3,6.8c-0.2,0-0.4-0.2-0.4-0.4c0-2.1,1.7-3.8,3.8-3.9c1.6,0,3.1,1,3.6,2.6c0.1,0.2,0,0.4-0.2,0.5
	s-0.4,0-0.5-0.2c0,0,0,0,0-0.1c-0.4-1.6-2-2.6-3.6-2.2c-1.4,0.4-2.4,1.7-2.3,3.2C15.8,6.6,15.6,6.8,15.3,6.8L15.3,6.8z"/>
<path class="st0" d="M15.3,17.1c-0.2,0-0.4-0.2-0.4-0.4V6.4c0-0.2,0.2-0.4,0.4-0.4s0.4,0.2,0.4,0.4l0,0v10.3
	C15.7,17,15.6,17.1,15.3,17.1L15.3,17.1z"/>
<path class="st0" d="M25.7,15.4c-0.2,0-0.3-0.1-0.4-0.3l-3.6-9.6c-0.1-0.2,0-0.4,0.2-0.5s0.4,0,0.5,0.2l3.6,9.6
	c0.1,0.2,0,0.4-0.2,0.5l0,0C25.8,15.4,25.8,15.4,25.7,15.4L25.7,15.4z"/>
<path class="st0" d="M16.2,2.4c-0.2,0-0.4-0.2-0.4-0.4c0-1.1,1-2,2.1-1.9c0.8,0,1.5,0.5,1.8,1.2c0.1,0.2,0,0.4-0.2,0.5
	s-0.4,0-0.5-0.2c-0.3-0.6-1-0.9-1.6-0.7C16.9,1,16.6,1.5,16.6,2C16.6,2.2,16.4,2.4,16.2,2.4L16.2,2.4z"/>
<path class="st0" d="M16.2,4.1c-0.2,0-0.4-0.2-0.4-0.4V2c0-0.2,0.2-0.4,0.4-0.4c0.2,0,0.4,0.2,0.4,0.4v1.8C16.6,4,16.4,4.1,16.2,4.1
	L16.2,4.1z"/>
<path class="st0" d="M19.8,3.3c-0.2,0-0.3-0.1-0.4-0.3l-0.5-1.4c-0.1-0.2,0-0.4,0.2-0.5s0.4,0,0.5,0.2l0.5,1.4
	c0.1,0.2,0,0.4-0.2,0.5l0,0L19.8,3.3L19.8,3.3z"/>
<path class="st0" d="M15.3,12.4H11c-0.2,0-0.4-0.2-0.4-0.4s0.2-0.4,0.4-0.4l0,0h3.9V8.3H11c-0.2,0-0.4-0.2-0.4-0.4
	c0-0.2,0.2-0.4,0.4-0.4h4.3c0.2,0,0.4,0.2,0.4,0.4l0,0V12C15.7,12.3,15.6,12.4,15.3,12.4L15.3,12.4z"/>
</svg>
