<svg id="Calque_1" data-name="Calque 1" xmlns="http://www.w3.org/2000/svg" viewBox="0 0 36.5 37.17"><defs><style>.cls-1,.cls-2{fill:#221f20;}.cls-2{font-size:7px;font-family:Gotham-Book, Gotham;}.cls-3{fill:none;stroke:#fff;stroke-miterlimit:10;stroke-width:2px;}</style></defs><title>Rooms-2</title><path class="cls-1" d="M23.83,2.4H36V25.17H14.1a.73.73,0,0,0-.73.73c0,.4-.34.73.06.73H36V36H22.86c-.4,0,.73.48.73.88s-1.13.58-.73.58H36.77a.73.73,0,0,0,.73-.73v-35a.73.73,0,0,0-.73-.73h-35A.73.73,0,0,0,1,1.67v35a.73.73,0,0,0,.73.73H23.1c.41,0,.48-.18.48-.58S23.51,36,23.1,36H2.47V18.88H12.7v7a.73.73,0,0,0,1.47,0V1.55c0-.41-.33.27-.73.27s-.73-.67-.73-.27V17.41H2.47V2.4h19.9M36.77.94" transform="translate(-1 -0.94)"/><text class="cls-2" transform="translate(21.93 14.21)">2</text><text class="cls-2" transform="translate(4.9 10.84)">1</text><text class="cls-2" transform="translate(15.39 32.59)">3</text><rect class="cls-3" x="12.17" y="35.08" width="2.83" height="1.08"/><rect class="cls-3" x="5.17" y="16.58" width="2.83" height="1.08"/><rect class="cls-3" x="5.17" y="17.08" width="2.83" height="1.08"/><rect class="cls-3" x="29.08" y="24.38" width="2.83" height="1.08"/></svg>