<?xml version="1.0" encoding="utf-8"?>
<!-- Generator: Adobe Illustrator 21.0.0, SVG Export Plug-In . SVG Version: 6.00 Build 0)  -->
<svg version="1.1" id="Calque_1" xmlns="http://www.w3.org/2000/svg" xmlns:xlink="http://www.w3.org/1999/xlink" x="0px" y="0px"
	 viewBox="0 0 37.7 37.2" style="enable-background:new 0 0 37.7 37.2;" xml:space="preserve">
<style type="text/css">
	.st0{fill:#231F20;stroke:#FFFFFF;stroke-width:0.5;stroke-miterlimit:10;}
	.st1{fill:#FFFFFF;}
	.st2{fill:none;stroke:#231F20;stroke-width:0.25;stroke-miterlimit:10;}
	.st3{fill:#231F20;}
	.st4{fill:none;stroke:#231F20;stroke-width:1.25;stroke-miterlimit:10;}
	.st5{fill:none;stroke:#231F20;stroke-miterlimit:10;}
</style>
<title>Surface area</title>
<path class="st0" d="M36.4,30.5H7l-0.6-0.6v-29L7,0.3h17.6l0.6,0.6v11.8h11.2l0.6,0.6v16.6C37,30.3,36.8,30.6,36.4,30.5L36.4,30.5
	L36.4,30.5z"/>
<path class="st1" d="M26.8,17.1c0-0.1,0-0.4-0.3-0.6l-8.7-6.1c-0.4-0.3-1-0.3-1.5,0L13,12.7v-0.9c0-0.3-0.2-0.5-0.5-0.5h-1.9
	c-0.3,0-0.5,0.2-0.5,0.5v2.7c0,0.1,0,0.2-0.1,0.3l-2.4,1.7c-0.3,0.2-0.3,0.5-0.3,0.6s0.2,0.3,0.6,0.3h1c0.2,0,0.4,0.2,0.4,0.4l0,0
	v9.7c0,0.6,0.4,1,1,1h13.5c0.6,0,1-0.4,1-1v-9.7c0-0.2,0.2-0.4,0.4-0.4l0,0h1C26.6,17.4,26.7,17.2,26.8,17.1L26.8,17.1z M13.4,23.1
	c0,0.1-0.1,0.2-0.2,0.2h-2.1c-0.1,0-0.2-0.1-0.2-0.2v-1.8c0-0.1,0.1-0.2,0.2-0.2h2.1c0.1,0,0.2,0.1,0.2,0.2
	C13.4,21.3,13.4,23.1,13.4,23.1z M13.4,20.1c0,0.1-0.1,0.2-0.2,0.2h-2.1c-0.1,0-0.2-0.1-0.2-0.2v-1.7c0-0.1,0.1-0.2,0.2-0.2h2.1
	c0.1,0,0.2,0.1,0.2,0.2L13.4,20.1L13.4,20.1z M16.5,23.1c0,0.1-0.1,0.2-0.2,0.2h-2.1c-0.1,0-0.2-0.1-0.2-0.2v-1.8
	c0-0.1,0.1-0.2,0.2-0.2h2.1c0.1,0,0.2,0.1,0.2,0.2V23.1z M16.5,20.1c0,0.1-0.1,0.2-0.2,0.2h-2.1c-0.1,0-0.2-0.1-0.2-0.2v-1.7
	c0-0.1,0.1-0.2,0.2-0.2h2.1c0.1,0,0.2,0.1,0.2,0.2V20.1z M22.1,27.6c0,0.1-0.1,0.2-0.2,0.2h-3.1c-0.1,0-0.2-0.1-0.2-0.2v-5.1
	c0-0.1,0.1-0.2,0.2-0.2h3.1c0.1,0,0.2,0.1,0.2,0.2V27.6z"/>
<g>
	<line class="st1" x1="9.2" y1="34" x2="34.5" y2="34"/>
	<g>
		<line class="st2" x1="11" y1="34" x2="32.7" y2="34"/>
		<g>
			<polygon class="st3" points="11.3,35.3 9.2,34 11.3,32.8 			"/>
		</g>
		<g>
			<polygon class="st3" points="32.3,35.3 34.5,34 32.3,32.8 			"/>
		</g>
	</g>
</g>
<line class="st4" x1="7.9" y1="31.9" x2="7.9" y2="36.5"/>
<line class="st4" x1="35.8" y1="31.9" x2="35.8" y2="36.5"/>
<line class="st5" x1="10.7" y1="34" x2="32.9" y2="34"/>
<g>
	<line class="st1" x1="2.6" y1="2.6" x2="2.6" y2="29.2"/>
	<g>
		<line class="st2" x1="2.6" y1="4.4" x2="2.6" y2="27.4"/>
		<g>
			<polygon class="st3" points="1.4,4.8 2.6,2.6 3.9,4.8 			"/>
		</g>
		<g>
			<polygon class="st3" points="1.4,27 2.6,29.2 3.9,27 			"/>
		</g>
	</g>
</g>
<line class="st4" x1="4.9" y1="1.3" x2="0.3" y2="1.3"/>
<line class="st4" x1="4.9" y1="30.5" x2="0.4" y2="30.5"/>
<line class="st5" x1="2.6" y1="4.3" x2="2.6" y2="28.1"/>
</svg>
