<svg id="Calque_1" data-name="Calque 1" xmlns="http://www.w3.org/2000/svg" viewBox="0 0 37.25 31.58"><defs><style>.cls-1{stroke:#fff;stroke-miterlimit:10;stroke-width:0.75px;}</style></defs><title>swimming-pool</title><path class="cls-1" d="M36.87,25.55a4.47,4.47,0,0,0-2.51.71,3.54,3.54,0,0,1-3.78,0,4.8,4.8,0,0,0-5,0,3.54,3.54,0,0,1-3.78,0,4.8,4.8,0,0,0-5,0,3.27,3.27,0,0,1-1.89.55A3.27,3.27,0,0,1,13,26.26a4.47,4.47,0,0,0-2.51-.71,5.48,5.48,0,0,0-.65,0V22.42h5.68v1.92a.63.63,0,0,0,1.26,0V9.84a6.31,6.31,0,0,1,2.84-5.27A6.27,6.27,0,0,1,22.4,9.84a.63.63,0,0,0,1.26,0,7.51,7.51,0,0,0-2.84-5.91,6.31,6.31,0,0,1,8.52,5.91.63.63,0,0,0,1.26,0,7.57,7.57,0,1,0-15.13,0V11H9.79V9.84a6.32,6.32,0,0,1,6.31-6.31h.44a.63.63,0,0,0,.09-1.26l-.52,0A7.58,7.58,0,0,0,8.53,9.84V25.94c-.22.1-.42.21-.6.32A3.27,3.27,0,0,1,6,26.81a3.27,3.27,0,0,1-1.89-.55,4.46,4.46,0,0,0-2.51-.71.63.63,0,0,0,0,1.26,3.27,3.27,0,0,1,1.89.55A4.47,4.47,0,0,0,6,28.07a4.47,4.47,0,0,0,2.51-.71,3.27,3.27,0,0,1,1.89-.55,3.27,3.27,0,0,1,1.89.55,4.47,4.47,0,0,0,2.51.71,4.47,4.47,0,0,0,2.51-.71,3.54,3.54,0,0,1,3.78,0,4.8,4.8,0,0,0,5,0,3.54,3.54,0,0,1,3.78,0,4.8,4.8,0,0,0,5,0,3.27,3.27,0,0,1,1.89-.55.63.63,0,0,0,0-1.26ZM9.79,21.16v-3.8h5.68v3.8Zm5.68-8.86v3.8H9.79v-3.8Zm0,0" transform="translate(-0.63 -1.89)"/><path class="cls-1" d="M32.46,29.33a3.27,3.27,0,0,1-1.89-.55,4.79,4.79,0,0,0-5,0,3.54,3.54,0,0,1-3.78,0,4.79,4.79,0,0,0-5,0,3.27,3.27,0,0,1-1.89.55A3.27,3.27,0,0,1,13,28.78a4.47,4.47,0,0,0-2.51-.71,4.47,4.47,0,0,0-2.51.71A3.27,3.27,0,0,1,6,29.33a.63.63,0,1,0,0,1.26,4.47,4.47,0,0,0,2.51-.71,3.26,3.26,0,0,1,1.89-.55,3.26,3.26,0,0,1,1.89.55,4.47,4.47,0,0,0,2.51.71,4.47,4.47,0,0,0,2.51-.71,3.54,3.54,0,0,1,3.78,0,4.8,4.8,0,0,0,5,0,3.54,3.54,0,0,1,3.78,0,4.47,4.47,0,0,0,2.51.71.63.63,0,0,0,0-1.26Zm0,0" transform="translate(-0.63 -1.89)"/><path class="cls-1" d="M28.06,30.59a4.47,4.47,0,0,0-2.51.71,3.54,3.54,0,0,1-3.78,0,4.8,4.8,0,0,0-5,0,3.26,3.26,0,0,1-1.89.55A3.26,3.26,0,0,1,13,31.3a4.47,4.47,0,0,0-2.51-.71.63.63,0,0,0,0,1.26,3.27,3.27,0,0,1,1.89.55,4.47,4.47,0,0,0,2.51.71,4.47,4.47,0,0,0,2.51-.71,3.54,3.54,0,0,1,3.78,0,4.79,4.79,0,0,0,5,0,3.27,3.27,0,0,1,1.89-.55.63.63,0,0,0,0-1.26Zm0,0" transform="translate(-0.63 -1.89)"/></svg>